<svg data-v-0dd9719b="" version="1.0" xmlns="http://www.w3.org/2000/svg" xmlns:xlink="http://www.w3.org/1999/xlink" width="100%" height="100%" viewBox="0 0 340.000000 250.000000" preserveAspectRatio="xMidYMid meet" color-interpolation-filters="sRGB" style="margin: auto;"> <rect data-v-0dd9719b="" x="0" y="0" width="100%" height="100%" fill="#333333" fill-opacity="1" class="background"></rect> <rect data-v-0dd9719b="" x="0" y="0" width="100%" height="100%" fill="url(#watermark)" fill-opacity="1" class="watermarklayer"></rect> <g data-v-0dd9719b="" fill="#ffffff" class="icon-text-wrapper icon-svg-group iconsvg" transform="translate(87.7550048828125,95.05420112609863)"><g class="iconsvg-imagesvg" transform="translate(0,0)" mask="url(#9b900646-a3ae-4b0f-b200-0688ae9db801)"><g><rect fill="#ffffff" fill-opacity="0" stroke-width="2" x="0" y="0" width="60" height="59.89159621085834" class="image-rect"></rect> <svg filter="url(#colors2535340234)" x="0" y="0" width="60" height="59.89159621085834" filtersec="colorsf2647842368" class="image-svg-svg primary" style="overflow: visible;"><svg xmlns="http://www.w3.org/2000/svg" viewBox="-0.6000000000000001 -0.6000000000000001 59.5 59.4"><path d="M36.4 21.9c4 4 4 10.5 0 14.5s-10.5 4-14.5 0-4-10.5 0-14.5m14.5 0L22.5 8 1.4 29.1l27.7 27.7 27.7-27.7L29.1 1.4m7.3 34.9c4-4 4-10.5 0-14.5s-10.5-4-14.5 0-4 10.5 0 14.5m0 0l13.9 13.9 21.1-21.1L29.2 1.4 1.5 29.1l27.7 27.7" fill="none" stroke="#282828" stroke-width="2" stroke-miterlimit="10"></path></svg></svg> <defs><filter id="colors2535340234"><feColorMatrix type="matrix" values="0 0 0 0 0.99609375  0 0 0 0 0.59765625  0 0 0 0 0  0 0 0 1 0" class="icon-fecolormatrix"></feColorMatrix></filter> <filter id="colorsf2647842368"><feColorMatrix type="matrix" values="0 0 0 0 0.99609375  0 0 0 0 0.99609375  0 0 0 0 0.99609375  0 0 0 1 0" class="icon-fecolormatrix"></feColorMatrix></filter> <filter id="colorsb4743053945"><feColorMatrix type="matrix" values="0 0 0 0 0  0 0 0 0 0  0 0 0 0 0  0 0 0 1 0" class="icon-fecolormatrix"></feColorMatrix></filter></defs></g><rect v-gra="id" width="72" height="71.89159774780273" transform="translate(-6, -6)" style="pointer-events:none;" fill="url(#zClw3C37YUCLuHLmmLrK0)"></rect></g> <g transform="translate(67,22.005798816680908)"><g data-gra="path-name" fill-rule="" class="tp-name iconsvg-namesvg"><g transform="scale(1)"><g><path d="M13.83-8.78Q14.99-10 14.99-11.68L14.99-11.68Q14.99-13.42 13.76-14.65L13.76-14.65Q12.52-15.88 10.79-15.88L10.79-15.88 0.98-15.88 0.98-14.01 10.79-14.01Q11.76-14.01 12.44-13.33L12.44-13.33Q13.12-12.65 13.12-11.68L13.12-11.68Q13.12-10.72 12.44-10.03L12.44-10.03Q11.76-9.34 10.79-9.34L10.79-9.34 0.98-9.34 0.98-7.47 11.72-7.47Q12.68-7.47 13.38-6.79L13.38-6.79Q14.06-6.1 14.06-5.14L14.06-5.14 14.06-4.2Q14.06-3.23 13.38-2.55L13.38-2.55Q12.68-1.87 11.72-1.87L11.72-1.87 0.98-1.87 0.98 0 11.72 0Q13.46 0 14.7-1.23L14.7-1.23Q15.93-2.47 15.93-4.2L15.93-4.2 15.93-5.14Q15.93-7.56 13.83-8.78L13.83-8.78ZM37.97-9.34L26.75-9.34 26.75-11.22Q26.75-12.38 27.57-13.2L27.57-13.2Q28.4-14.01 29.56-14.01L29.56-14.01 35.16-14.01Q36.32-14.01 37.14-13.2L37.14-13.2Q37.97-12.38 37.97-11.22L37.97-11.22 37.97-9.34ZM35.16-15.88L29.56-15.88Q27.62-15.88 26.25-14.51L26.25-14.51Q24.88-13.15 24.88-11.22L24.88-11.22 24.88 0 26.75 0 26.75-7.47 37.97-7.47 37.97 0 39.84 0 39.84-11.22Q39.84-13.15 38.47-14.51L38.47-14.51Q37.09-15.88 35.16-15.88L35.16-15.88ZM52.53-14.01L63.74-14.01 63.74-15.88 52.53-15.88Q50.99-15.88 49.89-14.79L49.89-14.79Q48.79-13.7 48.79-12.15L48.79-12.15 48.79-11.22Q48.79-9.67 49.89-8.57L49.89-8.57Q50.99-7.47 52.53-7.47L52.53-7.47 60.01-7.47Q60.78-7.47 61.33-6.92L61.33-6.92Q61.88-6.38 61.88-5.6L61.88-5.6 61.88-3.74Q61.88-2.97 61.33-2.42L61.33-2.42Q60.78-1.87 60.01-1.87L60.01-1.87 48.79-1.87 48.79 0 60.01 0Q61.55 0 62.65-1.1L62.65-1.1Q63.74-2.2 63.74-3.74L63.74-3.74 63.74-5.6Q63.74-7.15 62.65-8.25L62.65-8.25Q61.55-9.34 60.01-9.34L60.01-9.34 52.53-9.34Q51.76-9.34 51.21-9.89L51.21-9.89Q50.66-10.44 50.66-11.22L50.66-11.22 50.66-12.15Q50.66-12.92 51.21-13.46L51.21-13.46Q51.76-14.01 52.53-14.01L52.53-14.01ZM72.7-15.88L72.7 0 74.56 0 74.56-15.88 72.7-15.88ZM98.47-11.68L98.47-15.88 96.6-15.88 96.6-11.68Q96.6-10.72 95.92-10.03L95.92-10.03Q95.22-9.34 94.26-9.34L94.26-9.34 85.39-9.34 85.39-15.88 83.52-15.88 83.52 0 85.39 0 85.39-7.47 94.26-7.47Q95.22-7.47 95.92-6.79L95.92-6.79Q96.6-6.1 96.6-5.14L96.6-5.14 96.6 0 98.47 0 98.47-5.14Q98.47-7.14 96.9-8.41L96.9-8.41Q98.47-9.68 98.47-11.68L98.47-11.68Z" transform="translate(-0.9800000190734863, 15.880000114440918)"></path></g> <!----> <!----> <!----> <!----> <!----> <!----> <!----></g></g> <!----></g></g><defs v-gra="od"></defs><defs v-gra="id"><filter id="379f6a61-db9e-4d56-b779-d697f95ead2c" filterUnits="userSpaceOnUse"><feColorMatrix type="matrix" values="0 0 0 0 0.99609375  0 0 0 0 0.99609375  0 0 0 0 0.99609375  0 0 0 1 0"></feColorMatrix></filter><linearGradient x1="0" y1="1" x2="0" y2="0" id="zClw3C37YUCLuHLmmLrK0"><stop offset="0%" stop-color="#57ec99"></stop><stop offset="33.33%" stop-color="#1371ef"></stop><stop offset="66.67%" stop-color="#fc1cd5"></stop><stop offset="100%" stop-color="#fccc05"></stop></linearGradient><filter id="42443b3f1de60f6b6fd3b6a9844b4764" filterUnits="objectBoundingBox"><feColorMatrix type="matrix" values="0 0 0 0 0.99609375  0 0 0 0 0.99609375  0 0 0 0 0.99609375  0 0 0 1 0"></feColorMatrix></filter></defs><mask v-gra="im" id="9b900646-a3ae-4b0f-b200-0688ae9db801"><g class="iconsvg-imagesvg" filter="url(#379f6a61-db9e-4d56-b779-d697f95ead2c)"><g><rect fill="#ffffff" fill-opacity="0" stroke-width="2" x="0" y="0" width="60" height="59.89159621085834" class="image-rect"></rect> <svg x="0" y="0" width="60" height="59.89159621085834" filtersec="colorsf2647842368" class="image-svg-svg primary" style="overflow: visible;"><svg xmlns="http://www.w3.org/2000/svg" viewBox="-0.6000000000000001 -0.6000000000000001 59.5 59.4"><path d="M36.4 21.9c4 4 4 10.5 0 14.5s-10.5 4-14.5 0-4-10.5 0-14.5m14.5 0L22.5 8 1.4 29.1l27.7 27.7 27.7-27.7L29.1 1.4m7.3 34.9c4-4 4-10.5 0-14.5s-10.5-4-14.5 0-4 10.5 0 14.5m0 0l13.9 13.9 21.1-21.1L29.2 1.4 1.5 29.1l27.7 27.7" fill="none" stroke="#282828" stroke-width="2" stroke-miterlimit="10"></path></svg></svg> <defs><filter id="colors2535340234"><feColorMatrix type="matrix" values="0 0 0 0 0.99609375  0 0 0 0 0.59765625  0 0 0 0 0  0 0 0 1 0" class="icon-fecolormatrix"></feColorMatrix></filter> <filter id="colorsf2647842368"><feColorMatrix type="matrix" values="0 0 0 0 0.99609375  0 0 0 0 0.99609375  0 0 0 0 0.99609375  0 0 0 1 0" class="icon-fecolormatrix"></feColorMatrix></filter> <filter id="colorsb4743053945"><feColorMatrix type="matrix" values="0 0 0 0 0  0 0 0 0 0  0 0 0 0 0  0 0 0 1 0" class="icon-fecolormatrix"></feColorMatrix></filter></defs></g></g></mask></svg>
