<svg xmlns="http://www.w3.org/2000/svg" viewBox="0 0 59.2 59.1">
    <path
        d="M15.063 15.065.575 29.533l14.488 14.488c7.968 7.969 14.518 14.477 14.555 14.464.038-.014 6.579-6.526 14.537-14.472l14.469-14.446-14.487-14.488C36.169 7.111 29.627.593 29.6.595c-.027.001-6.569 6.513-14.537 14.47m24.897-1.301 10.31 10.31-2.022 2.023-2.022 2.024-8.32-8.313-8.321-8.313-8.969 9.028c-4.932 4.965-8.969 9.05-8.971 9.077-.001.027 4.038 4.09 8.976 9.028l8.979 8.978 8.313-8.313 8.313-8.312 2.041 2.047 2.04 2.048-10.361 10.303-10.361 10.303-13.09-13.093L3.404 29.495 16.477 16.48C23.668 9.321 29.573 3.461 29.6 3.459c.027-.003 4.689 4.634 10.36 10.305m-2.738 8.214 7.573 7.573-7.598 7.597-7.597 7.597-7.548-7.548c-4.151-4.151-7.548-7.588-7.548-7.638 0-.095 14.998-15.154 15.092-15.154.03 0 3.461 3.408 7.626 7.573m16.551 5.599 2.021 2.023-2.021 2.023-2.021 2.022-2.048-2.046-2.048-2.047 1.997-1.998c1.099-1.1 2.02-1.999 2.048-1.999.028 0 .961.91 2.072 2.022 Z"
        fill-rule="evenodd"
    />
</svg>
